<svg width="17" height="17" viewBox="0 0 17 17" fill="none" xmlns="http://www.w3.org/2000/svg">
<path d="M15.7296 7.52287C15.3521 7.52287 15.0457 7.82926 15.0457 8.20677C15.0457 11.9778 11.9778 15.0457 8.20677 15.0457C4.43576 15.0457 1.36779 11.9778 1.36779 8.20677C1.36779 4.43576 4.43576 1.36779 8.20677 1.36779C10.0427 1.36779 11.7661 2.0852 13.0597 3.38803C13.3257 3.65577 13.759 3.65748 14.0267 3.39145C14.2948 3.12541 14.2962 2.69216 14.0302 2.42407C12.478 0.861027 10.4096 0 8.20677 0C3.68142 0 0 3.68142 0 8.20677C0 12.7321 3.68142 16.4135 8.20677 16.4135C12.7318 16.4135 16.4135 12.7321 16.4135 8.20677C16.4135 7.82926 16.1071 7.52287 15.7296 7.52287Z" fill="#004E93"/>
<path d="M9.17406 8.20682L10.7422 6.63864C11.0093 6.37158 11.0093 5.93867 10.7422 5.67161C10.4752 5.40455 10.0423 5.40455 9.77521 5.67161L8.20703 7.23979L6.63885 5.67161C6.37213 5.40455 5.93854 5.40455 5.67182 5.67161C5.40476 5.93867 5.40476 6.37158 5.67182 6.63864L7.24 8.20682L5.67182 9.775C5.40476 10.0421 5.40476 10.475 5.67182 10.742C5.80518 10.8757 5.98026 10.9424 6.15534 10.9424C6.33042 10.9424 6.50549 10.8757 6.63885 10.742L8.20703 9.17385L9.77521 10.742C9.90891 10.8757 10.0836 10.9424 10.2587 10.9424C10.4338 10.9424 10.6085 10.8757 10.7422 10.742C11.0093 10.475 11.0093 10.0421 10.7422 9.775L9.17406 8.20682Z" fill="#004E93"/>
</svg>
