<svg width="18" height="19" viewBox="0 0 18 19" fill="none" xmlns="http://www.w3.org/2000/svg">
<path d="M13.1484 0C11.0998 0 9.71786 1.04255 9 1.77464C8.28214 1.04255 6.90019 0 4.85156 0C2.0276 0 0 2.50963 0 5.51917C0 7.26872 0.716238 9.07654 2.07134 10.7472C3.55215 12.5729 5.78025 14.2532 8.69375 15.7412C8.79047 15.7906 8.8952 15.8153 9 15.8153C9.1048 15.8153 9.20953 15.7906 9.30625 15.7412C12.2198 14.2532 14.4478 12.5729 15.9287 10.7472C17.2838 9.07654 18 7.26872 18 5.51917C18 2.51153 15.9737 0 13.1484 0ZM14.8604 9.78185C13.5574 11.3883 11.5867 12.8895 9 14.2465C6.41331 12.8895 4.44252 11.3883 3.13956 9.78185C1.98942 8.36382 1.40625 6.92966 1.40625 5.51917C1.40625 3.35454 2.78986 1.48438 4.85156 1.48438C5.82268 1.48438 6.71389 1.78667 7.50041 2.3829C8.08685 2.82744 8.40052 3.28273 8.42087 3.31272C8.5507 3.51645 8.76565 3.63598 8.99838 3.63731C8.99961 3.63731 9.00081 3.63731 9.00204 3.63731C9.23404 3.63731 9.44916 3.51329 9.58025 3.31105C9.59207 3.29275 10.7919 1.48438 13.1484 1.48438C15.2104 1.48438 16.5938 3.35547 16.5938 5.51917C16.5938 6.92966 16.0106 8.36382 14.8604 9.78185ZM13.8516 18.2578C13.8516 18.6677 13.5368 19 13.1484 19H4.85156C4.46323 19 4.14844 18.6677 4.14844 18.2578C4.14844 17.8479 4.46323 17.5156 4.85156 17.5156H13.1484C13.5368 17.5156 13.8516 17.8479 13.8516 18.2578Z" fill="url(#paint0_linear_357_14)"/>
<defs>
<linearGradient id="paint0_linear_357_14" x1="0" y1="9.5" x2="18" y2="9.5" gradientUnits="userSpaceOnUse">
<stop stop-color="#80D8FF"/>
<stop offset="1" stop-color="#EA80FC"/>
</linearGradient>
</defs>
</svg>
