<?xml version="1.0" encoding="utf-8"?>
<!-- Generator: Adobe Illustrator 26.2.1, SVG Export Plug-In . SVG Version: 6.00 Build 0)  -->
<svg version="1.1" id="Capa_1" xmlns="http://www.w3.org/2000/svg" xmlns:xlink="http://www.w3.org/1999/xlink" x="0px" y="0px"
	 viewBox="0 0 512 512" style="enable-background:new 0 0 512 512;" xml:space="preserve">
<style type="text/css">
	.st0{fill:#88AEC4;}
</style>
<path class="st0" d="M256,477.4c-2.6,0-5.2-0.7-7.5-2c-2.5-1.5-62.4-36.2-123.1-88.6c-36-31-64.7-61.8-85.4-91.5
	C13.2,256.9-0.2,219.9,0,185.5c0.3-40.1,14.6-77.8,40.4-106.2c26.3-28.8,61.3-44.7,98.7-44.7c47.9,0,91.7,26.8,116.9,69.3
	c25.2-42.5,69-69.3,116.9-69.3c35.3,0,69,14.3,94.9,40.4c28.4,28.6,44.5,68.9,44.2,110.7c-0.2,34.4-13.9,71.3-40.7,109.6
	c-20.7,29.7-49.4,60.4-85.3,91.5c-60.5,52.4-119.9,87.1-122.4,88.6C261.2,476.7,258.6,477.4,256,477.4L256,477.4z M139.1,64.6
	c-28.8,0-56,12.4-76.5,34.9C41.8,122.4,30.2,153,30,185.7c-0.4,65,62.1,132.8,114.6,178.1c46.4,40.1,93.4,70.1,111.3,81.1
	c17.8-11,64.5-41,110.7-81.1c52.4-45.4,114.9-113.2,115.3-178.3c0.2-33.9-12.7-66.5-35.5-89.4c-20.2-20.3-46.3-31.5-73.6-31.5
	c-45.9,0-87.1,32.3-102.6,80.3c-2,6.2-7.8,10.4-14.3,10.4c-6.5,0-12.3-4.2-14.3-10.4C226.2,96.9,185,64.6,139.1,64.6L139.1,64.6z"/>
</svg>
